<svg xmlns="http://www.w3.org/2000/svg" viewBox="0 0 24 24" width="24" height="24" aria-hidden="true">
  <rect width="24" height="24" rx="4" fill="#1DA1F2"/>
  <path fill="#fff" d="M19 7.5c-.56.25-1.16.42-1.79.49.64-.38 1.13-.98 1.36-1.7-.6.36-1.27.62-1.98.77A3.1 3.1 0 0013.5 6c-1.72 0-3.12 1.4-3.12 3.12 0 .24.03.48.08.71-2.59-.13-4.88-1.37-6.42-3.26-.27.47-.43 1.02-.43 1.6 0 1.1.56 2.07 1.4 2.64-.52-.02-1.01-.16-1.44-.4v.04c0 1.54 1.1 2.82 2.56 3.11-.27.07-.56.11-.86.11-.21 0-.42-.02-.62-.06.42 1.32 1.63 2.28 3.07 2.31A6.23 6.23 0 015 18.5c.91.58 2 .92 3.15.92 3.78 0 5.86-3.13 5.86-5.84v-.27c.4-.3.74-.67 1.01-1.09-.36.16-.73.26-1.12.31.4-.24.71-.62.86-1.07z"/>
</svg>